<svg xmlns="http://www.w3.org/2000/svg" viewBox="0 0 295 180">
<defs><style>.cls-1{fill:none;opacity:0.2;}.cls-2{fill:#afadad;}.cls-3{fill:#e8e8e8;}</style></defs>
<title>MesaLink</title>
<g id="Layer" data-name="Layer">
<rect class="cls-1" width="295.08" height="246.73"/>
<path class="cls-2" d="M224,39.48a26.89,26.89,0,0,0-37.73-4.74c-4.75,3.69-8,10.18-9.74,15.48-2.09,6.24-4.12,11.05-9.66,15.36h0c-5.55,4.3-10.71,5.08-17.28,5.55l-1.16.1c-1.1-.15-2.17-.26-3.19-.34-6.56-.47-11.72-1.25-17.27-5.55h0C122.44,61,120.4,56.22,118.32,50c-1.77-5.3-5-11.79-9.74-15.48A26.89,26.89,0,1,0,75.59,77c4.75,3.69,11.84,5.2,17.41,5.6,6.57.47,11.73,1.26,17.28,5.56h0c5.54,4.31,7.57,9.12,9.66,15.36,1.76,5.3,5,11.79,9.74,15.48a26.81,26.81,0,0,0,15.22,5.62,26.85,26.85,0,0,0,20.28-5.38c4.75-3.69,8-10.18,9.74-15.48,2.08-6.25,4.12-11.06,9.66-15.37h0c5.55-4.29,10.71-5.08,17.28-5.55,5.57-.4,12.65-1.91,17.41-5.6A26.9,26.9,0,0,0,224,39.48Z"/>
<circle class="cls-3" cx="147.54" cy="98.81" r="26.89"/>
<path class="cls-3" d="M225.78,85h0c-1.38-6.88.21-11.86,2.71-18,2.12-5.17,3.91-12.19,2.72-18.09a26.89,26.89,0,0,0-52.72,10.66c1.2,5.9,5.57,11.67,9.54,15.61,4.66,4.65,8.07,8.61,9.47,15.49h0c1.38,6.88-.22,11.85-2.71,17.94-2.12,5.17-3.92,12.19-2.72,18.09a26.89,26.89,0,1,0,52.71-10.66c-1.19-5.9-5.57-11.67-9.53-15.61C230.58,95.85,227.18,91.88,225.78,85Z"/>
<path class="cls-3" d="M69.29,85h0c1.39-6.88-.21-11.86-2.7-18C64.47,61.89,62.67,54.87,63.87,49a26.89,26.89,0,0,1,52.71,10.66c-1.19,5.9-5.57,11.67-9.53,15.61-4.67,4.65-8.07,8.61-9.47,15.49h0c-1.38,6.88.21,11.85,2.71,17.94,2.12,5.17,3.91,12.19,2.72,18.09A26.89,26.89,0,0,1,50.29,116.1c1.2-5.9,5.57-11.67,9.54-15.61C64.49,95.85,67.9,91.88,69.29,85Z"/>
<path d="M147.55,90.85h0a8,8,0,1,1-7.86,9.53A8,8,0,0,1,146,91a8,8,0,0,1,1.54-.15m0-3.43a10.92,10.92,0,0,0-2.19.22,11.42,11.42,0,0,0,2.17,22.63,11.76,11.76,0,0,0,2.19-.21,11.43,11.43,0,0,0-2.17-22.64Z"/>
<path d="M218.42,113.46h0a8,8,0,0,1,3.06,15.39,7.87,7.87,0,0,1-3,.61,8,8,0,0,1-3.06-15.39,8.06,8.06,0,0,1,3-.61m0-3.42A11.42,11.42,0,1,0,229,117.1,11.4,11.4,0,0,0,218.42,110Z"/>
<path d="M204.85,46.34h0a8,8,0,0,1,3.06,15.39,8,8,0,1,1-3.06-15.39m0-3.43A11.43,11.43,0,1,0,215.41,50a11.38,11.38,0,0,0-10.56-7.07Z"/>
<path d="M248.74,115.33c-1.56-7.72-7.34-14.38-10.65-17.67-4.12-4.1-7.14-7.47-8.35-13.4v0c-1.2-5.95.27-10.22,2.48-15.61,1.77-4.32,4.5-12.7,2.94-20.42A30.94,30.94,0,0,0,184,31.51h0c-6.22,4.83-9.79,13-11.27,17.47-1.84,5.52-3.52,9.73-8.31,13.45l0,0c-4.78,3.69-9.26,4.27-15.06,4.68l-.78.07c-1.11-.15-2.12-.24-3-.3-5.79-.42-10.27-1-15-4.69l0,0c-4.78-3.72-6.46-7.92-8.3-13.45C120.67,44.31,117,36,110.74,31.18h0a30.94,30.94,0,0,0-50.83,17c-1.56,7.72,1.18,16.1,2.94,20.42,2.22,5.39,3.69,9.67,2.49,15.61v0c-1.21,5.93-4.23,9.3-8.36,13.4-3.3,3.29-9.08,10-10.64,17.67A30.92,30.92,0,1,0,107,127.59c1.56-7.72-1.17-16.1-2.94-20.42-2.21-5.39-3.68-9.66-2.48-15.61v0a20.7,20.7,0,0,1,.91-3.2,20.14,20.14,0,0,1,5.32,3l0,0c4.79,3.73,6.47,7.93,8.31,13.46,1.47,4.42,5.23,12.8,11.45,17.63h0a30.87,30.87,0,0,0,40.91-.86c5.59-4.89,8.88-12.36,10.27-16.53,1.84-5.51,3.51-9.7,8.26-13.42l0,0a19.78,19.78,0,0,1,5.63-3.11,21.08,21.08,0,0,1,.86,3.05v0c1.2,6-.27,10.22-2.48,15.61-1.77,4.32-4.51,12.7-2.95,20.42a31,31,0,0,0,30.31,24.8,30.58,30.58,0,0,0,6.13-.62A31,31,0,0,0,248.74,115.33ZM170.4,98.85A22.86,22.86,0,1,1,147.54,76,22.89,22.89,0,0,1,170.4,98.85ZM99.06,126a22.86,22.86,0,1,1-44.81-9.06c.83-4.11,3.9-9.05,8.42-13.55C67.45,98.63,71.55,94,73.22,86l.06-.27c1.58-8.07-.4-13.89-3-20.13-2.42-5.9-3.33-11.65-2.5-15.76a22.86,22.86,0,0,1,44.81,9.06c-.83,4.11-3.9,9.05-8.43,13.55-4.78,4.75-8.87,9.35-10.54,17.4l-.06.28c-1.59,8.07.4,13.9,3,20.13C99,116.13,99.89,121.88,99.06,126Zm13.81-40.91-.24-.19a28.38,28.38,0,0,0-5.84-3.5c.94-1.07,2-2.13,3.1-3.25,3-3,7.9-8.61,10-15.31a28.29,28.29,0,0,0,5.44,5.61l.29.23a28.93,28.93,0,0,0,6,3.58l-.09.12a31,31,0,0,0-13.7,17.74A28.31,28.31,0,0,0,112.87,85.08Zm69.36,0a1.84,1.84,0,0,0-.22.17,28,28,0,0,0-4.82,4.78,31.08,31.08,0,0,0-13.72-17.73l.16-.07a28.26,28.26,0,0,0,5.64-3.41l.18-.15a27.94,27.94,0,0,0,5.7-5.93c2.11,6.72,7.06,12.4,10,15.35,1.16,1.15,2.23,2.25,3.2,3.36A28.24,28.24,0,0,0,182.23,85.13ZM223,143.87A22.9,22.9,0,0,1,196,126c-.83-4.11.08-9.85,2.5-15.76,2.56-6.24,4.55-12.07,2.95-20.15a2,2,0,0,0-.05-.24c-1.67-8.07-5.76-12.66-10.55-17.42-4.52-4.5-7.59-9.44-8.42-13.55a22.86,22.86,0,1,1,44.81-9.06c.83,4.11-.08,9.86-2.5,15.76-2.56,6.22-4.54,12-3,20.09,0,.12,0,.23.07.35,1.68,8,5.77,12.62,10.55,17.37,4.52,4.5,7.59,9.44,8.42,13.55A22.89,22.89,0,0,1,223,143.87Z"/>
<path d="M76.66,113.46a8,8,0,0,1,0,16,7.83,7.83,0,0,1-3.05-.61,8,8,0,0,1,3.06-15.39m0-3.42a11.41,11.41,0,1,0,4.35.86,11.32,11.32,0,0,0-4.35-.86Z"/>
<path d="M90.23,46.34a8,8,0,0,1,7.38,11,8,8,0,0,1-7.39,5,8.06,8.06,0,0,1-3-.61,8,8,0,0,1,3.06-15.39m0-3.43a11.43,11.43,0,1,0,4.36.87,11.42,11.42,0,0,0-4.36-.87Z"/>
</g></svg>